<svg width="25" height="24" viewBox="0 0 25 24" fill="none" xmlns="http://www.w3.org/2000/svg">
<path fill-rule="evenodd" clip-rule="evenodd" d="M8.58398 3.75L19.834 3.75C20.0329 3.75 20.2237 3.82902 20.3643 3.96967C20.505 4.11032 20.584 4.30109 20.584 4.5V15.75C20.584 16.1642 20.2482 16.5 19.834 16.5C19.4198 16.5 19.084 16.1642 19.084 15.75V6.31066L5.36431 20.0303C5.07142 20.3232 4.59655 20.3232 4.30365 20.0303C4.01076 19.7374 4.01076 19.2626 4.30365 18.9697L18.0233 5.25L8.58398 5.25C8.16977 5.25 7.83398 4.91421 7.83398 4.5C7.83398 4.08579 8.16977 3.75 8.58398 3.75Z" fill="#141414"/>
</svg>
